# xmcd
#
# Track frame offsets:
#	150
#	21769
#	43694
#	62926
#	73074
#	86132
#	106754
#	134861
#	157110
#	172853
#
# Disc length: 2469 seconds
#
# Revision: 0
# Processed by: cddbd v1.5.2PL0 Copyright (c) Steve Scherf et al.
# Submitted via: dBpowerAMP V4.0
#
DISCID=8d09a30a
DTITLE=Tjens Couter - Who cares
DYEAR=2007
DGENRE=Blues
TTITLE0=You give me reason to live
TTITLE1=Little red rooster
TTITLE2=Sometimes I wonder
TTITLE3=Martha
TTITLE4=Sittin' in the park
TTITLE5=Asking myself all day
TTITLE6=I'm on my way
TTITLE7=Baby make me feel alright
TTITLE8=Long long time ago
TTITLE9=The javatrot
EXTD=
EXTT0=
EXTT1=
EXTT2=
EXTT3=
EXTT4=
EXTT5=
EXTT6=
EXTT7=
EXTT8=
EXTT9=
PLAYORDER=
